RBDS012runT25_grf
version=1
nRows=27
nColumns=19
inDegrees=no
endheader
time	ground_force_r_vx	ground_force_r_vy	ground_force_r_vz	ground_force_r_px	ground_force_r_py	ground_force_r_pz	ground_force_r_mx	ground_force_r_my	ground_force_r_mz	ground_force_l_vx	ground_force_l_vy	ground_force_l_vz	ground_force_l_px	ground_force_l_py	ground_force_l_pz	ground_force_l_mx	ground_force_l_my	ground_force_l_mz
     14.99900000	      0.00000000	      0.00000000	      0.00000000	      0.00000000	      0.00000000	      0.00000000	      0.00000000	      0.00000000	      0.00000000	    -23.74000905	   1744.59244845	    101.23463471	      2.01871108	      0.00000000	      0.93735433	     -0.00000000	     11.61096252	      0.00000000
     15.00000000	      0.00000000	      0.00000000	      0.00000000	      0.00000000	      0.00000000	      0.00000000	      0.00000000	      0.00000000	      0.00000000	    -20.35302107	   1743.27140567	    100.96229858	      2.01675061	      0.00000000	      0.93729483	     -0.00000000	     11.66945729	      0.00000000
     15.00100000	      0.00000000	      0.00000000	      0.00000000	      0.00000000	      0.00000000	      0.00000000	      0.00000000	      0.00000000	      0.00000000	    -17.03365365	   1740.73382879	    100.63402924	      2.01480019	      0.00000000	      0.93723614	     -0.00000000	     11.72504777	      0.00000000
     15.00200000	      0.00000000	      0.00000000	      0.00000000	      0.00000000	      0.00000000	      0.00000000	      0.00000000	      0.00000000	      0.00000000	    -13.71428622	   1738.19625191	    100.30575990	      2.01284977	      0.00000000	      0.93717745	     -0.00000000	     11.78063825	      0.00000000
     15.00300000	      0.00000000	      0.00000000	      0.00000000	      0.00000000	      0.00000000	      0.00000000	      0.00000000	      0.00000000	      0.00000000	    -10.39491880	   1735.65867503	     99.97749055	      2.01089935	      0.00000000	      0.93711876	     -0.00000000	     11.83622873	      0.00000000
     15.00400000	      0.00000000	      0.00000000	      0.00000000	      0.00000000	      0.00000000	      0.00000000	      0.00000000	      0.00000000	      0.00000000	     -7.12272641	   1732.32967865	     99.60995829	      2.00895385	      0.00000000	      0.93706182	     -0.00000000	     11.88943581	      0.00000000
     15.00500000	      0.00000000	      0.00000000	      0.00000000	      0.00000000	      0.00000000	      0.00000000	      0.00000000	      0.00000000	      0.00000000	     -3.87412154	   1728.60497252	     99.22279456	      2.00701081	      0.00000000	      0.93700575	     -0.00000000	     11.94145120	      0.00000000
     15.00600000	      0.00000000	      0.00000000	      0.00000000	      0.00000000	      0.00000000	      0.00000000	      0.00000000	      0.00000000	      0.00000000	     -0.62551668	   1724.88026639	     98.83563083	      2.00506777	      0.00000000	      0.93694969	     -0.00000000	     11.99346658	      0.00000000
     15.00700000	      0.00000000	      0.00000000	      0.00000000	      0.00000000	      0.00000000	      0.00000000	      0.00000000	      0.00000000	      0.00000000	      2.60030780	   1720.77170242	     98.42743844	      2.00312568	      0.00000000	      0.93689510	     -0.00000000	     12.04406127	      0.00000000
     15.00800000	      0.00000000	      0.00000000	      0.00000000	      0.00000000	      0.00000000	      0.00000000	      0.00000000	      0.00000000	      0.00000000	      5.78057149	   1715.89542276	     97.97718873	      2.00118552	      0.00000000	      0.93684348	     -0.00000000	     12.09181457	      0.00000000
     15.00900000	      0.00000000	      0.00000000	      0.00000000	      0.00000000	      0.00000000	      0.00000000	      0.00000000	      0.00000000	      0.00000000	      8.96083519	   1711.01914311	     97.52693902	      1.99924536	      0.00000000	      0.93679185	     -0.00000000	     12.13956788	      0.00000000
     15.01000000	      0.00000000	      0.00000000	      0.00000000	      0.00000000	      0.00000000	      0.00000000	      0.00000000	      0.00000000	      0.00000000	     12.14109888	   1706.14286346	     97.07668930	      1.99730520	      0.00000000	      0.93674022	     -0.00000000	     12.18732118	      0.00000000
     15.01100000	      0.00000000	      0.00000000	      0.00000000	      0.00000000	      0.00000000	      0.00000000	      0.00000000	      0.00000000	      0.00000000	     15.25924281	   1700.15475085	     96.55842701	      1.99536198	      0.00000000	      0.93669475	     -0.00000000	     12.23011942	      0.00000000
     15.01200000	      0.00000000	      0.00000000	      0.00000000	      0.00000000	      0.00000000	      0.00000000	      0.00000000	      0.00000000	      0.00000000	     18.37738673	   1694.16663823	     96.04016472	      1.99341875	      0.00000000	      0.93664929	     -0.00000000	     12.27291766	      0.00000000
     15.01300000	      0.00000000	      0.00000000	      0.00000000	      0.00000000	      0.00000000	      0.00000000	      0.00000000	      0.00000000	      0.00000000	     21.49553066	   1688.17852562	     95.52190243	      1.99147553	      0.00000000	      0.93660382	     -0.00000000	     12.31571590	      0.00000000
     15.01400000	      0.00000000	      0.00000000	      0.00000000	      0.00000000	      0.00000000	      0.00000000	      0.00000000	      0.00000000	      0.00000000	     24.57769846	   1681.47725091	     94.95487799	      1.98952565	      0.00000000	      0.93656352	     -0.00000000	     12.35474988	      0.00000000
     15.01500000	      0.00000000	      0.00000000	      0.00000000	      0.00000000	      0.00000000	      0.00000000	      0.00000000	      0.00000000	      0.00000000	     27.64187820	   1674.41939516	     94.36347248	      1.98757245	      0.00000000	      0.93652580	     -0.00000000	     12.39190173	      0.00000000
     15.01600000	      0.00000000	      0.00000000	      0.00000000	      0.00000000	      0.00000000	      0.00000000	      0.00000000	      0.00000000	      0.00000000	     30.70605794	   1667.36153941	     93.77206696	      1.98561924	      0.00000000	      0.93648808	     -0.00000000	     12.42905357	      0.00000000
     15.01700000	      0.00000000	      0.00000000	      0.00000000	      0.00000000	      0.00000000	      0.00000000	      0.00000000	      0.00000000	      0.00000000	     33.75499391	   1659.96138274	     93.15468179	      1.98366025	      0.00000000	      0.93645339	     -0.00000000	     12.46409499	      0.00000000
     15.01800000	      0.00000000	      0.00000000	      0.00000000	      0.00000000	      0.00000000	      0.00000000	      0.00000000	      0.00000000	      0.00000000	     36.77344233	   1651.87662422	     92.48533732	      1.98168967	      0.00000000	      0.93642479	      0.00000000	     12.49491553	      0.00000000
     15.01900000	      0.00000000	      0.00000000	      0.00000000	      0.00000000	      0.00000000	      0.00000000	      0.00000000	      0.00000000	      0.00000000	     39.79189076	   1643.79186571	     91.81599284	      1.97971908	      0.00000000	      0.93639619	      0.00000000	     12.52573608	      0.00000000
     15.02000000	      0.00000000	      0.00000000	      0.00000000	      0.00000000	      0.00000000	      0.00000000	      0.00000000	      0.00000000	      0.00000000	     42.81033918	   1635.70710720	     91.14664837	      1.97774850	      0.00000000	      0.93636759	      0.00000000	     12.55655662	      0.00000000
     15.02100000	      0.00000000	      0.00000000	      0.00000000	      0.00000000	      0.00000000	      0.00000000	      0.00000000	      0.00000000	      0.00000000	     45.78962742	   1626.63776404	     90.39542485	      1.97575320	      0.00000000	      0.93634922	      0.00000000	     12.58036932	      0.00000000
     15.02200000	      0.00000000	      0.00000000	      0.00000000	      0.00000000	      0.00000000	      0.00000000	      0.00000000	      0.00000000	      0.00000000	     48.76891566	   1617.56842088	     89.64420133	      1.97375790	      0.00000000	      0.93633086	      0.00000000	     12.60418203	      0.00000000
     15.02300000	      0.00000000	      0.00000000	      0.00000000	      0.00000000	      0.00000000	      0.00000000	      0.00000000	      0.00000000	      0.00000000	     51.74820390	   1608.49907773	     88.89297782	      1.97176260	      0.00000000	      0.93631249	      0.00000000	     12.62799473	      0.00000000
     15.02400000	      0.00000000	      0.00000000	      0.00000000	      0.00000000	      0.00000000	      0.00000000	      0.00000000	      0.00000000	      0.00000000	     54.70364442	   1598.80062245	     88.08543092	      1.96974633	      0.00000000	      0.93630149	      0.00000000	     12.64668974	      0.00000000
     15.02500000	      0.00000000	      0.00000000	      0.00000000	      0.00000000	      0.00000000	      0.00000000	      0.00000000	      0.00000000	      0.00000000	     57.64716107	   1588.78761111	     87.24972233	      1.96771956	      0.00000000	      0.93629418	      0.00000000	     12.66282591	      0.00000000
